#!OML:ASF F:\VICON\USERDATA\INSTALL\rory3\rory3.ASF
:FULLY-SPECIFIED
:DEGREES
158
root -0.24597177182758223 17.6680831474683 49.484046748799415 2.6465979250366622 2.555266288698454 1.0680400348489663
lfemur 4.197910983242796 -3.558619767745437 -30.326712862942212
ltibia 12.000171105299913
lfoot -9.148362860495597 3.243534390410538
ltoes -25.599920471238946
rfemur -42.76665083480874 -8.729418241320843 17.651132045443603
rtibia 63.33311826662998
rfoot 2.00386159251918 -8.145264399481436
rtoes -22.82270329795132
lowerback 1.0 -0.9549340502589696 -2.5324102156806383
upperback 0.15518946769006725 -0.7384594799585917 -0.4838310468490783
thorax -7.123996860654033 -0.5973850086216146 3.036378618885918
lowerneck -18.828446994282196 -4.315757523618893 -2.371978202098379
upperneck 10.683273291905975 -4.883606969539537 4.34827341971417
head 6.6590324073721945 -2.115674568583724 1.6263805262859647
lclavicle 1.4194664205987533e-14 -9.504402461904413e-16
lhumerus -42.94956754543202 -5.76717483518482 92.22885462861397
lradius 129.71276560829915
lwrist 7.528355504905136
lhand -34.38774916050766 -6.413643439926099
lfingers nan
lthumb -7.7737649531175705 23.34322157305077
rclavicle 1.5111602233994497e-14 2.141820746334111e-16
rhumerus -60.85445178567876 3.3409686834900363 -90.133088389314
rradius 107.10403528124867
rwrist -11.92846625495546
rhand -20.28951886768684 1.0
rfingers nan
rthumb 5.994117452744058 0.5095085378646127
159
root -0.22631026155422101 17.711072939996292 50.136663448358455 2.664608695501415 2.6456846255546047 1.1777143478887648
lfemur 4.681137243218178 -3.641858311792527 -30.23553505743082
ltibia 11.870854971129944
lfoot -8.72794701161718 2.9459584284331157
ltoes -25.557432013622496
rfemur -43.568830613943206 -8.714435164845199 17.692709824183616
rtibia 62.615582544596386
rfoot 2.1119852797694345 -8.142999744947808
rtoes -23.14394310679407
lowerback 1.0 -0.95436631633842 -2.5022401162006958
upperback 0.12981739516054103 -0.7358976315224908 -0.49715997359816466
thorax -7.08381978778557 -0.5773162592915131 3.038386642761637
lowerneck -18.869358229065725 -4.332267682821282 -2.343668601781843
upperneck 10.676574604497091 -4.93086287465276 4.280788436446775
head 6.658331959597705 -2.1124421400666726 1.6033971257270938
lclavicle 1.423023834460118e-14 -9.394701893592097e-16
lhumerus -42.86791093308638 -5.918726184489602 92.29485487180153
lradius 129.6641771264608
lwrist 8.86449158898742
lhand -34.27776185302735 -6.31890359606186
lfingers nan
lthumb -7.6610893194848195 23.444007493115663
rclavicle 1.492553792900624e-14 2.6057943818780436e-17
rhumerus -60.47584948722447 3.3753942636836456 -90.34141963858046
rradius 107.26500274147723
rwrist -12.093058565002481
rhand -20.312497312544426 1.0
rfingers nan
rthumb 5.976398398839006 0.7893266407584321
160
root -0.20819417789951955 17.759747314179418 50.297095939502704 2.6804082211391305 2.5988533043364406 1.3066624582798552
lfemur 5.313303126968435 -3.710376625028183 -30.075114282290883
ltibia 11.734933539839076
lfoot -8.385742688510252 2.53436318745624
ltoes -25.499826092837353
rfemur -44.39259838359297 -8.669792214359795 17.775736501571195
rtibia 61.90487545267215
rfoot 2.194989863932629 -8.141067808947435
rtoes -23.485708049151683
lowerback 1.0 -0.9585177257595432 -2.5109478896026927
upperback 0.12004519492136312 -0.7063912525567546 -0.5135765947645139
thorax -7.049922310497099 -0.5659122700901 3.043441501488626
lowerneck -18.945706393175616 -4.33598850404419 -2.3133144462661703
upperneck 10.680617989061005 -4.962808343360808 4.215982879273309
head 6.670466656135247 -2.1122972804643663 1.580911459586411
lclavicle 1.4462864331989923e-14 -9.470878678995207e-16
lhumerus -42.7715828782587 -6.105898191553223 92.33949496154183
lradius 129.60684579269738
lwrist 10.01402518492031
lhand -34.178745479045034 -6.227718978933506
lfingers nan
lthumb -7.55899073055285 23.536190733686563
rclavicle 1.4998395533816584e-14 4.073023550727753e-18
rhumerus -60.12049235830254 3.4182075820722932 -90.5062284300794
rradius 107.42921040650764
rwrist -12.273743727582769
rhand -20.343366663816163 1.0
rfingers nan
rthumb 5.944066165171095 1.0669247368004005
161
root -0.1926447977609934 17.793488594937052 50.349376616002395 2.681375111617634 2.483940491518377 1.4177924844419265
lfemur 5.891161842192442 -3.777926213582382 -29.898524892885458
ltibia 11.59149810900606
lfoot -7.992404801491219 2.119122370583625
ltoes -25.51536124407432
rfemur -45.00347282699437 -8.666544703161577 17.896741063361027
rtibia 61.20181873015918
rfoot 2.2345385633170274 -8.139272323632053
rtoes -23.777085894411723
lowerback 1.0 -0.965942487678211 -2.521371234211788
upperback 0.1276723975993529 -0.6539330298482688 -0.5363911893016653
thorax -7.026683696355425 -0.5603962784801553 3.0511581833180985
lowerneck -19.01155222449803 -4.348452855268871 -2.287637758685803
upperneck 10.681539874090596 -4.973590929142339 4.148571117809901
head 6.672524715078983 -2.111682795926362 1.5534894486151447
lclavicle 1.437293098280442e-14 -1.1970549992041503e-15
lhumerus -42.67373900819345 -6.29753686531712 92.37577120050082
lradius 129.55527525637632
lwrist 11.043792797926134
lhand -34.078050053193536 -6.144594976808675
lfingers nan
lthumb -7.4696609999661145 23.61811585056608
rclavicle 1.48564860534558e-14 -2.0320254076442709e-16
rhumerus -59.80280838343397 3.440167612254715 -90.61377343050383
rradius 107.59468707293235
rwrist -12.45786999735486
rhand -20.382264900127254 1.0
rfingers nan
rthumb 5.894638499935965 1.3416531988227947
162
root -0.17684165875336955 17.81509786770436 50.278443449864334 2.681071343343086 2.290214526568911 1.4930368374420353
lfemur 6.500852822700249 -3.8597218025529036 -29.73689590272764
ltibia 11.446031767751897
lfoot -7.631719468886775 1.7232636342173926
ltoes -25.507447125599974
rfemur -45.27264146752373 -8.673868002525673 18.042039890926638
rtibia 60.48969875809794
rfoot 2.2516202424485465 -8.136036198496154
rtoes -24.093133267554357
lowerback 1.0 -0.9701073266902898 -2.5147414781003636
upperback 0.14716174839148743 -0.5852183126492241 -0.5695904168899031
thorax -7.009587758413509 -0.5529546495465698 3.0563105938068156
lowerneck -19.062962382593646 -4.354033559799617 -2.264667708650849
upperneck 10.685728266930521 -4.982075778099917 4.086548924370952
head 6.668899849370207 -2.106532334205885 1.5286142313736408
lclavicle 1.4982328470883766e-14 -1.0408826029380055e-15
lhumerus -42.584655727377466 -6.484783239470517 92.40086575664887
lradius 129.50590520963777
lwrist 11.953631311972174
lhand -33.9745326159896 -6.077516419999465
lfingers nan
lthumb -7.382567639117772 23.69047670329291
rclavicle 1.5282522740337064e-14 -2.6765985288553656e-16
rhumerus -59.53040113328423 3.3948333836841957 -90.71087163619714
rradius 107.76060396274212
rwrist -12.64704661025906
rhand -20.43348723183117 1.0
rfingers nan
rthumb 5.831595619291637 1.5884920686425197
163
root -0.15791477149795075 17.83579400495017 50.46278507652989 2.6758807604050654 2.0052534450403936 1.5286995093012665
lfemur 7.169369406717841 -3.9540405419486673 -29.640719169734126
ltibia 11.295033031020608
lfoot -7.316491293779922 1.3843529915488286
ltoes -25.498863083584844
rfemur -45.318755405074256 -8.702202917335537 18.209714618383522
rtibia 59.77080313868267
rfoot 2.28700443289528 -8.120140484987157
rtoes -24.34366971703828
lowerback 1.0 -0.9691400185306196 -2.4859117406023667
upperback 0.17217330243552398 -0.5089687645353063 -0.61379634795415
thorax -6.997854917166844 -0.5414582386364839 3.056575011828296
lowerneck -19.134515001159595 -4.355507921421957 -2.2477654777508715
upperneck 10.713604797188097 -4.9836861150975675 4.013652401218844
head 6.658319890375378 -2.1069985946320045 1.508526729069201
lclavicle 1.5365016966211257e-14 -8.894236583135084e-16
lhumerus -42.5455380385825 -6.659236827605561 92.401976296187
lradius 129.45410070287713
lwrist 12.793256338802575
lhand -33.87459633020554 -6.017941389443027
lfingers nan
lthumb -7.308390081059247 23.746769125663555
rclavicle 1.562045488153315e-14 -1.4799993072195687e-16
rhumerus -59.30521952993631 3.3635924150232253 -90.79054916414856
rradius 107.92580044209306
rwrist -12.841987278308315
rhand -20.48826655536362 1.0
rfingers nan
rthumb 5.769850308574611 1.8446927771603994
